<svg width="100" height="101" viewBox="0 0 100 101" fill="none" xmlns="http://www.w3.org/2000/svg">
<path d="M2.5904 39.259C1.60729 34.431 1.6181 24.2404 0.634888 19.4129C16.7089 16.8993 32.8849 15.2596 49.0925 14.5016C49.1868 12.7839 49.28 11.065 49.3743 9.34609C64.3382 9.9848 79.3021 10.6223 94.2671 11.2599C95.4823 11.3127 96.9426 11.5431 97.4436 12.8251C97.7124 13.512 97.6063 14.3067 97.5259 15.0554C96.5845 23.8735 97.6926 32.7833 97.4327 41.5195L2.5904 39.259" fill="#F8A40F"/>
<path d="M92.1692 55.401L9.44349 57.3025L8.38324 22.1124L91.5541 19.6739L92.1692 55.401" fill="#E9EBEF"/>
<path d="M10.178 56.4055L91.3929 54.538L90.8085 20.5751L9.17124 22.9688L10.178 56.4055M92.1843 56.2796L9.45871 58.182C9.0428 58.1915 8.69737 57.8136 8.68303 57.333L7.62314 22.142C7.61611 21.9083 7.69053 21.6802 7.82945 21.5088C7.96886 21.3385 8.16151 21.2384 8.36445 21.2328L91.5354 18.7946C91.7279 18.7712 91.933 18.8747 92.0803 19.0383C92.2266 19.1997 92.3104 19.4222 92.3152 19.6559L92.9294 55.3828C92.9381 55.8677 92.605 56.27 92.1843 56.2796Z" fill="#81191C"/>
<path d="M94.7385 61.0547L12.0129 62.9561L10.9525 27.7653L94.1241 25.3273L94.7385 61.0547Z" fill="white"/>
<path d="M12.7469 62.0598L93.9623 60.1922L93.3782 26.2293L11.74 28.6226L12.7469 62.0598M94.754 61.9338L12.0275 63.8363C11.6117 63.8458 11.2663 63.4679 11.2519 62.9872L10.1919 27.797C10.1848 27.5628 10.2593 27.3332 10.3982 27.1625C10.5378 26.9928 10.7304 26.8921 10.9333 26.8865L94.1042 24.4491H94.1081C94.3087 24.4445 94.5035 24.5316 94.6493 24.6922C94.796 24.854 94.8802 25.0768 94.8841 25.3109L95.4996 61.0371C95.5074 61.522 95.1728 61.9243 94.754 61.9338" fill="#81191C"/>
<path d="M98.4739 41.496C98.6468 34.9281 98.1023 28.3732 98.1902 21.8061C98.2112 20.2321 98.2691 18.6593 98.383 17.0911C98.4799 15.7701 98.8516 14.225 98.5609 12.9063C98.0613 10.6348 95.9944 10.1579 94.246 10.0575C91.6895 9.90965 89.126 9.83921 86.5675 9.72951C76.2445 9.28954 65.9206 8.84958 55.5966 8.40961C54.3888 8.35765 53.171 8.25256 51.9621 8.25487C50.7393 8.25602 49.6244 8.77914 48.8811 9.93737C48.0399 11.2503 48.1358 12.9686 48.0509 14.5264C48.3916 14.1176 48.7313 13.7077 49.0719 13.2989C39.5502 13.7492 30.04 14.4929 20.5538 15.5449C15.8537 16.0669 11.1598 16.6627 6.47382 17.3325C4.74051 17.5808 2.53116 17.4653 1.17118 18.948C-0.0422424 20.2714 -0.0934929 21.9065 0.0643537 23.7045C0.484945 28.4956 0.64199 33.3849 1.56569 38.0955C1.63912 38.4701 1.9756 38.8576 2.30757 38.9196C7.76777 39.9394 13.2281 40.9594 18.6885 41.9791C27.3831 43.6031 36.0776 45.2265 44.7721 46.8505C46.7242 47.2158 48.6773 47.6478 50.6384 47.9463C52.2668 48.194 53.9472 48.1771 55.5846 48.2755C64.2752 48.7985 72.9637 49.3225 81.6533 49.8455C83.2277 49.9398 84.8022 50.035 86.3767 50.1304C87.083 50.1727 87.8712 50.339 88.5786 50.2627C89.5726 50.1557 90.5706 48.8356 91.3199 48.1696C93.0492 46.6325 94.7785 45.0952 96.5079 43.5582C96.8745 43.233 97.2391 42.9078 97.6048 42.5827C98.6568 41.6481 97.5828 39.5813 96.5178 40.5279C95.348 41.5682 94.1781 42.6084 93.0073 43.6486C91.4977 44.9904 89.7374 46.2333 88.3718 47.7695C88.1949 47.9674 88.098 47.9516 88.141 47.9368C88.163 47.9283 88.2249 47.9198 88.3358 47.9431C88.8923 48.0627 88.8123 47.9961 88.6675 47.9283C88.5676 47.8816 88.4377 47.8351 88.4647 47.85C88.3288 47.7748 88.085 47.7843 87.8742 47.7939C87.7753 47.7992 87.6844 47.8033 87.6155 47.7992C86.3557 47.724 85.0959 47.6478 83.8362 47.5716C75.2055 47.0517 66.5759 46.5318 57.9453 46.012C55.6416 45.8734 53.3358 45.7517 51.033 45.596C50.9491 45.5907 50.9971 45.6013 51.063 45.6108C51.1669 45.6277 51.3167 45.6436 51.079 45.5981C50.8302 45.5505 50.5815 45.5049 50.3317 45.4594C49.2757 45.2615 48.2198 45.0646 47.1638 44.8676C38.8798 43.3199 30.5942 41.7725 22.3097 40.2252C18.1926 39.4562 14.0755 38.6871 9.95844 37.9182C8.49756 37.6454 7.03658 37.3724 5.5757 37.0997C4.79426 36.9537 3.93499 36.6598 3.14186 36.645C3.03696 36.6432 2.92547 36.6047 2.82127 36.5852C3.06863 36.8598 3.31589 37.1345 3.56335 37.4093C3.1011 35.0525 2.88521 32.6412 2.68061 30.2393C2.46402 27.6977 2.09348 25.0764 2.04413 22.5255C2.01526 21.0335 2.73356 20.3164 3.96007 20.1132C5.31905 19.888 6.68622 19.7136 8.04919 19.5231C10.7765 19.1432 13.5065 18.7875 16.2388 18.4572C27.1684 17.1373 38.1326 16.2251 49.1129 15.7066C49.7113 15.6777 50.0979 15.1407 50.1339 14.4779C50.1968 13.3358 50.003 11.5968 50.9811 10.9108C51.3867 10.6256 51.7803 10.6603 52.2169 10.6706C53.3058 10.6972 54.3948 10.7642 55.4837 10.8104C59.9294 10.9997 64.3751 11.1891 68.8207 11.3785C77.1576 11.7342 85.4936 12.076 93.8295 12.4455C94.288 12.4652 94.7526 12.4675 95.2041 12.5633C95.8385 12.6961 96.4419 12.8705 96.5698 13.7158C96.6627 14.3266 96.4809 15.0634 96.4239 15.6685C96.2581 17.4295 96.1622 19.1974 96.1222 20.9689C95.9664 27.8305 96.5708 34.6815 96.391 41.5438C96.35 43.0941 98.433 43.042 98.4739 41.496" fill="#81191C"/>
<path d="M93.508 42.3408C96.3256 42.276 98.6306 44.9154 98.5886 48.1729C98.4384 59.9065 99.2204 73.2174 98.6777 84.2871C98.5185 87.5372 98.2421 91.1018 96.2465 93.397C94.2219 95.7241 91.0839 95.9972 88.2322 96.1328C68.8632 97.0517 49.4952 97.9716 30.1269 98.8917C24.1711 99.1743 18.1908 99.457 12.2615 98.7519C10.9177 98.5921 9.48361 98.3315 8.49693 97.2655C7.38961 96.0692 7.13458 94.1815 6.94293 92.4431C5.40865 78.5341 3.84544 53.0917 2.31116 39.1817L6.31162 33.8333L62.6472 30.9619L64.6728 43.0037L93.508 42.3408" fill="#FACC08"/>
<path d="M94.0723 51.1166L84.9301 51.3262C83.8534 51.3516 82.9631 50.3628 82.9425 49.1189L82.9317 48.4921C82.9101 47.2492 83.765 46.2202 84.8408 46.1958L93.983 45.9851C95.0598 45.9608 95.95 46.9486 95.9706 48.1925L95.9824 48.8192C96.003 50.0632 95.1481 51.0912 94.0723 51.1166Z" fill="#F8A40F"/>
<path d="M52.6642 89.3134C37.2675 90.298 21.7991 92.6843 6.59558 89.0911C6.71163 90.261 6.82748 91.3937 6.94313 92.4429C7.13486 94.1813 7.38977 96.069 8.49719 97.2652C9.4839 98.3313 10.9179 98.5918 12.2616 98.7516C18.1912 99.4567 24.1714 99.1741 30.1272 98.8914C49.4962 97.9715 68.8644 97.0514 88.2326 96.1325C91.0852 95.997 94.2224 95.7238 96.2468 93.3969C96.8926 92.6546 97.3439 91.7707 97.6841 90.8157C82.6712 90.4081 67.697 88.3511 52.6642 89.3134" fill="#F8A40F"/>
<path d="M93.587 43.5436C94.851 43.5669 96.0252 44.1661 96.7922 45.3572C97.6832 46.741 97.5391 48.3564 97.531 49.9826C97.5118 53.6278 97.5673 57.2716 97.6348 60.9146C97.7668 68.208 97.9795 75.516 97.7013 82.8083C97.5884 85.7535 97.6257 89.3055 96.0605 91.8049C94.3752 94.4951 91.2325 94.764 88.6019 94.9091C81.7299 95.2881 74.8519 95.5633 67.978 95.8894C53.9932 96.5542 40.0084 97.3323 26.0189 97.8702C22.6155 98.0014 19.2059 98.0629 15.8036 97.8607C14.1891 97.7643 12.4732 97.7421 10.8967 97.2996C9.25883 96.8401 8.53162 95.6926 8.18359 93.8579C7.71884 91.408 7.60313 88.8121 7.37152 86.321C7.1143 83.5578 6.87733 80.7915 6.64783 78.0241C5.5738 65.07 4.76777 52.0703 3.35246 39.1581C3.2557 39.4441 3.15894 39.7303 3.06208 40.0163C4.39555 38.2338 5.72902 36.451 7.06249 34.6684C6.81898 34.7916 6.57556 34.9147 6.33205 35.0379C14.0735 34.6433 21.8151 34.2485 29.5569 33.8538C39.0367 33.3706 48.5162 32.8878 57.9956 32.4043C59.9913 32.3018 61.8267 32.854 62.3528 35.4977C62.8688 38.0906 63.2347 40.7352 63.6732 43.3474C63.7598 43.8592 64.2688 44.2181 64.6932 44.2075C73.1153 44.0148 81.5384 43.8211 89.9595 43.627C91.169 43.5991 92.3785 43.5714 93.587 43.5436C94.9265 43.5128 94.8872 41.105 93.5447 41.1359C85.1236 41.3295 76.7005 41.5233 68.2783 41.7168C67.0698 41.7447 65.8603 41.7725 64.6519 41.8003C64.9915 42.0871 65.3312 42.3741 65.6709 42.661C65.2112 39.9276 64.926 37.0632 64.2638 34.3857C63.4827 31.2241 60.9578 29.8435 58.3101 29.9775C53.7694 30.2094 49.2288 30.4412 44.6881 30.6731C32.4484 31.2964 20.2083 31.9208 7.9683 32.5453C6.87663 32.6 5.9815 32.4369 5.21468 33.4617C4.20475 34.8118 3.19492 36.162 2.18489 37.5122C1.9187 37.8681 1.50203 38.2898 1.35115 38.7401C1.04545 39.6525 1.4979 41.3446 1.59355 42.303C2.8099 54.4915 3.61663 66.731 4.63724 78.9419C4.87642 81.8025 5.12447 84.6632 5.39671 87.5194C5.64193 90.0909 5.69434 92.9272 6.37761 95.4014C7.2684 98.6261 9.57582 99.6277 12.2819 99.9559C15.8375 100.387 19.4217 100.446 22.9935 100.372C37.4835 100.072 51.9834 99.059 66.4631 98.371C73.7261 98.0259 80.9901 97.705 88.2531 97.3367C90.8425 97.2043 93.6878 97.0064 95.9022 95.2668C98.1075 93.536 99.0882 90.6849 99.448 87.7312C100.3 80.7449 99.9439 73.4494 99.821 66.4199C99.7524 62.5461 99.6647 58.6734 99.6275 54.7986C99.6103 52.9999 99.6033 51.2012 99.6174 49.4036C99.6285 47.895 99.6325 46.5134 99.0691 45.118C98.0551 42.6057 95.9042 41.1795 93.5447 41.1359C92.2042 41.1113 92.2475 43.519 93.587 43.5436" fill="#81191C"/>
<path d="M9.17128 64.77C9.3552 68.3367 9.68337 71.8908 10.1549 75.4215C10.2759 76.3277 10.8104 77.2128 11.7071 77.1461C12.4402 77.0911 13.3288 76.3267 13.1986 75.3516C12.7272 71.8209 12.399 68.2669 12.215 64.7002C12.1677 63.7823 11.5066 62.9131 10.6628 62.9755C9.86609 63.0359 9.12045 63.7865 9.17128 64.77" fill="white"/>
<path d="M10.5771 81.2602C10.5787 81.3491 10.5802 81.4381 10.5817 81.527C10.578 81.7694 10.6256 81.9939 10.7245 82.2014C10.7895 82.4184 10.8977 82.6047 11.0489 82.7604C11.1897 82.9287 11.355 83.0462 11.545 83.1129C11.7282 83.2188 11.9245 83.2643 12.1339 83.2505C12.2684 83.2272 12.4029 83.2029 12.5374 83.1785C12.7937 83.0896 13.015 82.9329 13.2012 82.7106C13.2784 82.5899 13.3557 82.4703 13.433 82.3496C13.5659 82.0722 13.6301 81.7747 13.6255 81.4571C13.624 81.3682 13.6224 81.2793 13.621 81.1903C13.6246 80.9479 13.5771 80.7234 13.4782 80.5159C13.4131 80.2989 13.3049 80.1126 13.1538 79.9569C13.013 79.7886 12.8476 79.6711 12.6577 79.6044C12.4744 79.4985 12.2782 79.452 12.0688 79.4657C11.9342 79.4901 11.7998 79.5144 11.6653 79.5388C11.4089 79.6277 11.1877 79.7833 11.0015 80.0067C10.9242 80.1263 10.8469 80.247 10.7697 80.3677C10.6368 80.6451 10.5726 80.9426 10.5771 81.2602" fill="white"/>
<path d="M43.0843 13.6206C46.8267 7.10648 53.4606 2.78279 60.6066 1.75903C61.5326 1.6267 62.4421 1.56212 63.3305 1.56212C69.5413 1.56212 74.8013 4.68737 78.6088 9.39007C70.938 9.064 63.2673 8.73686 55.5965 8.40973C54.3967 8.35891 53.1895 8.25515 51.9888 8.25515C51.9796 8.25515 51.9714 8.25515 51.9622 8.25515C50.7395 8.25621 49.6239 8.78026 48.8811 9.93847C48.2482 10.9252 48.1456 12.1416 48.098 13.3453C46.4265 13.4279 44.7549 13.52 43.0843 13.6206" fill="#FEF5DA"/>
<path d="M40.5051 20.2903C40.8275 18.8282 41.28 17.4318 41.8442 16.1074C44.2668 15.9549 46.6894 15.8216 49.1129 15.7062C49.7109 15.6776 50.0975 15.1419 50.1341 14.4781C50.1964 13.3368 50.0031 11.5963 50.9813 10.9113C51.2817 10.6996 51.5757 10.6647 51.8844 10.6647C51.9934 10.6647 52.1033 10.6689 52.2169 10.671C53.3059 10.6975 54.3949 10.7642 55.4839 10.8108C59.9288 11.0003 64.3747 11.1898 68.8205 11.3793C72.6765 11.5434 76.5325 11.7054 80.3894 11.8673C81.3318 13.3463 82.1497 14.9323 82.8312 16.5902C83.1572 17.3831 83.4494 18.1962 83.7068 19.0241L40.5051 20.2903" fill="#FCDA85"/>
<path d="M39.9262 26.0366C39.9079 24.6688 39.9968 23.3412 40.1818 22.0591L84.1913 20.7686C84.51 22.0623 84.7445 23.3846 84.8929 24.7186L39.9262 26.0366Z" fill="#F7F9FA"/>
<path d="M40.1818 22.0593C40.2688 21.4601 40.3769 20.8694 40.5051 20.2903L83.7067 19.0241C83.8853 19.5989 84.0475 20.1812 84.1913 20.7688L40.1818 22.0593" fill="#C89196"/>
<path d="M65.5288 41.7803C65.146 39.3175 64.8556 36.7764 64.2638 34.3856C63.9735 33.2093 63.4413 32.2786 62.7515 31.5819L62.6471 30.9615L62.0544 30.9922C61.0752 30.3008 59.8899 29.9694 58.6616 29.9694C58.5453 29.9694 58.428 29.9726 58.3098 29.9779C53.7701 30.2097 49.2286 30.4416 44.6889 30.6724C43.259 30.7455 41.8291 30.8186 40.4002 30.8916C40.2518 30.0329 40.1336 29.1573 40.0484 28.2647C40.0329 28.107 40.0191 27.9513 40.0072 27.7946L85.0379 26.4743C85.3182 31.6667 84.2849 36.9437 81.7531 41.4065C77.2619 41.5103 72.7698 41.614 68.2787 41.7167C67.3618 41.7379 66.4458 41.7591 65.5288 41.7803" fill="white"/>
<path d="M40.0078 27.7942C39.9611 27.2013 39.9345 26.6159 39.9263 26.0368L84.8929 24.7187C84.9579 25.302 85.0065 25.8875 85.0385 26.474L40.0078 27.7942Z" fill="#C89196"/>
<path d="M41.8441 16.1074C42.2114 15.2478 42.6263 14.4178 43.0843 13.6206C44.7549 13.52 46.4264 13.4279 48.098 13.3453C48.1456 12.1416 48.2482 10.9251 48.8811 9.93843C49.6239 8.78022 50.7394 8.25617 51.9622 8.25511C51.9713 8.25511 51.9796 8.25511 51.9887 8.25511C53.1895 8.25511 54.3967 8.35887 55.5965 8.40969C63.2673 8.73682 70.938 9.06395 78.6088 9.39003C79.2435 10.1745 79.837 11.0024 80.3893 11.8674C76.5324 11.7054 72.6764 11.5434 68.8204 11.3793C64.3746 11.1898 59.9288 11.0003 55.4839 10.8108C54.3948 10.7642 53.3058 10.6975 52.2168 10.671C52.1032 10.6689 51.9933 10.6647 51.8843 10.6647C51.5757 10.6647 51.2817 10.6996 50.9812 10.9114C50.0031 11.5963 50.1963 13.3368 50.134 14.4781C50.0974 15.1419 49.7109 15.6776 49.1128 15.7062C46.6893 15.8216 44.2667 15.955 41.8441 16.1074" fill="#C89196"/>
<path d="M62.6527 52.6406C52.5676 52.6406 43.8088 44.9355 40.9026 33.2751C46.6005 32.9839 52.2983 32.6938 57.9962 32.4038C58.14 32.3963 58.2838 32.3921 58.4258 32.3921C60.2503 32.3921 61.865 33.0443 62.3532 35.4973C62.8698 38.09 63.2352 40.7346 63.674 43.3464C63.7591 43.8514 64.2556 44.2082 64.6769 44.2082C64.6824 44.2082 64.6879 44.2082 64.6934 44.2071C69.8463 44.0896 74.9983 43.971 80.1503 43.8524C78.3111 46.2917 75.9325 48.3868 72.9787 49.9494C69.501 51.7894 66.0031 52.6406 62.6527 52.6406M62.7516 31.5812C62.5336 31.362 62.301 31.1651 62.0546 30.9915L62.6472 30.9618L62.7516 31.5812Z" fill="#FBEC77"/>
<path d="M64.6769 44.208C64.2556 44.208 63.7592 43.8512 63.674 43.3462C63.2353 40.7345 62.8698 38.0898 62.3532 35.4971C61.8651 33.0441 60.2503 32.392 58.4258 32.392C58.2838 32.392 58.14 32.3962 57.9962 32.4036C52.2984 32.6937 46.6005 32.9838 40.9026 33.2749C40.7094 32.4978 40.5408 31.7017 40.4007 30.8907C41.8295 30.8177 43.2593 30.7446 44.689 30.6716C49.2292 30.4408 53.7702 30.209 58.3104 29.9771C58.4286 29.9718 58.5458 29.9686 58.6621 29.9686C59.8904 29.9686 61.0755 30.3011 62.0547 30.9913C62.301 31.1649 62.5337 31.3619 62.7517 31.581C63.4413 32.2787 63.9744 33.2082 64.2647 34.3855C64.8564 36.776 65.1468 39.3169 65.5296 41.7794C66.4464 41.7582 67.3623 41.737 68.2792 41.7159C72.7708 41.6132 77.2624 41.5094 81.7541 41.4067C81.2741 42.2537 80.7401 43.0699 80.1503 43.8523C74.9983 43.9709 69.8463 44.0894 64.6934 44.207C64.6879 44.208 64.6824 44.208 64.6769 44.208" fill="#C89196"/>
<path d="M41.9815 37.2843C40.8724 38.2212 39.8814 39.3445 39.0488 40.6075C38.7768 41.0193 38.5139 41.4682 38.4498 41.9817C38.3399 42.872 38.8445 43.6946 39.3391 44.3881C40.267 45.686 41.2598 46.9215 42.3122 48.085C42.8095 48.6355 43.4104 49.2072 44.0955 49.1278C44.5507 49.0749 44.9399 48.7393 45.288 48.3963C46.2479 47.4498 47.0172 47.2338 47.7096 46.0153" fill="white"/>
<path d="M39.57 39.9215C38.5661 36.7889 34.6598 40.3736 33.4663 41.4884C30.8578 43.9276 27.557 46.262 27.6576 50.3719C27.7648 54.7707 31.2251 59.7117 35.202 59.8302C38.9664 59.9424 46.2241 52.864 45.1863 49.887" fill="white"/>
<path d="M57.2031 18.0237C55.3044 18.6388 53.6942 20.3359 52.989 22.4639Z" fill="white"/>
<path d="M64.688 42.7188C58.4708 44.1906 52.2398 40.0965 49.2037 33.903C47.7331 30.9009 46.956 27.1379 47.4068 23.6995C47.8233 20.5147 49.1842 17.6425 51.0796 15.3151C54.8742 10.6571 60.9064 8.11057 66.2776 10.3455C66.3808 10.3885 66.4728 10.4433 66.5583 10.5003C73.0432 12.4193 77.6019 19.6261 77.4336 27.4356C77.2617 35.5062 71.1245 41.1957 64.688 42.7188ZM82.8309 16.5906C79.0195 7.31866 70.9283 0.281707 60.6061 1.76023C48.9583 3.42786 38.6677 13.8689 40.0481 28.264C41.8348 46.8881 57.5998 58.0848 72.9781 49.9498C85.1539 43.5095 87.5337 28.0309 82.8309 16.5906Z" fill="#C0B2B7"/>
<path d="M83.4475 18.2477C83.8447 20.0252 84.0637 21.8563 83.9941 23.7701C83.7668 29.9629 81.7056 37.8162 78.1085 42.2466C74.1188 47.1591 68.79 50.0091 62.9628 50.3446C57.7629 50.6453 51.7779 47.6651 47.0143 45.2386C53.4178 52.5128 63.2727 55.0843 72.9782 49.9498C84.577 43.8157 87.2813 29.4834 83.4475 18.2477Z" fill="#A6949D"/>
<path d="M74.1712 38.6799C78.5273 33.5664 79.2197 26.2201 76.9647 20.2089C75.6907 16.8137 73.476 13.8441 70.4499 11.9426C68.8928 10.9655 67.2167 10.3631 65.5076 10.0688C65.765 10.1545 66.0224 10.2392 66.2779 10.3451C66.3814 10.3885 66.473 10.4425 66.5591 10.4996C73.0437 12.419 77.6022 19.6256 77.4346 27.4355C77.2624 35.5059 71.1249 41.1953 64.6888 42.7188C60.4591 43.7192 56.2267 42.1418 52.9954 39.0832C55.2741 41.3986 58.0869 43.0088 61.0819 43.5573C65.7851 44.419 70.8309 42.6013 74.1712 38.6799" fill="#C0B2B7"/>
<path d="M41.9815 37.2843C40.8724 38.2212 39.8814 39.3445 39.0488 40.6075C38.7768 41.0193 38.5139 41.4682 38.4498 41.9817C38.3399 42.872 38.8445 43.6946 39.3391 44.3881C40.267 45.686 41.2598 46.9215 42.3122 48.085C42.8095 48.6355 43.4104 49.2072 44.0955 49.1278C44.5507 49.0749 44.9399 48.7393 45.288 48.3963C46.2479 47.4498 47.0172 47.2338 47.7096 46.0153" fill="white"/>
<path d="M35.202 59.8301C37.8215 59.9085 40.561 57.537 42.3937 55.6113C43.316 54.6426 44.319 53.5023 44.8603 52.1811C45.9007 49.6445 44.3849 50.1442 43.0074 49.0844C42.7097 48.8547 42.4798 48.5286 42.2536 48.2068C41.4778 47.1026 40.702 45.9973 39.9263 44.892C39.3905 44.1298 38.8372 43.3241 38.6806 42.3586C38.4553 40.9727 39.8979 40.2422 39.1725 39.1539C38.7301 38.4912 37.8636 38.6563 37.2692 38.8194C35.8633 39.2037 34.5654 40.4614 33.4663 41.4894C30.8578 43.9275 27.557 46.262 27.6576 50.3718C27.7648 54.7707 31.2251 59.7116 35.202 59.8301" fill="#9BDDCF"/>
<path d="M31.7829 44.3734C33.8822 42.2634 36.2003 40.4975 38.5057 38.7104C38.0981 38.6215 37.6328 38.72 37.2692 38.8195C35.8633 39.2038 34.5654 40.4615 33.4664 41.4895C30.9888 43.8049 27.893 46.0302 27.6732 49.7695C28.7082 47.6871 30.2762 45.8873 31.7829 44.3734Z" fill="#6FCEB6"/>
<path d="M42.3937 55.6113C43.316 54.6426 44.3189 53.5023 44.8602 52.1811C45.7505 50.0087 44.7668 50.0616 43.6018 49.456C41.5904 51.8974 39.4939 54.289 37.0173 56.0951C35.4483 57.2385 33.785 58.1045 32.0448 58.691C33.0166 59.3675 34.0855 59.7973 35.2019 59.8301C37.8214 59.9085 40.5609 57.537 42.3937 55.6113" fill="#6FCEB6"/>
<path d="M57.2031 18.0237C55.3044 18.6388 53.6942 20.3359 52.989 22.4639Z" fill="#C0B2B7"/>
<path d="M81.9426 17.218C85.3446 25.641 84.6797 36.2457 79.185 43.2963C73.211 50.9625 62.7551 53.5278 54.5458 49.601C46.4568 45.7304 41.1328 36.1487 40.9696 26.0894C40.797 15.5127 47.7082 7.2007 56.0733 4.13397C61.112 2.28638 66.6262 2.19692 71.4774 4.82601C76.1579 7.36239 79.711 11.8854 81.9426 17.218C82.5264 18.6117 84.3001 17.3484 83.721 15.9611C81.5537 10.7827 78.1293 6.27907 73.7566 3.46996C69.2038 0.544442 63.9973 -0.198264 58.9046 0.849492C49.5836 2.76606 40.7094 10.6555 39.152 21.9113C37.631 32.9052 42.6491 44.6156 50.9088 50.1928C59.4194 55.9394 70.7379 54.6637 78.356 47.508C86.4786 39.8816 88.0173 26.6003 83.721 15.9611C83.1549 14.5598 81.3803 15.8242 81.9426 17.218" fill="#81191C"/>
<path d="M75.9655 20.5517C78.2598 26.8784 77.1754 34.2872 72.5253 38.8067C67.7772 43.4205 60.8658 43.664 55.6845 39.9194C50.636 36.2711 47.3552 28.9302 49.0487 22.0741C50.5297 16.0787 55.9006 12.0165 61.0425 11.213C67.4347 10.2147 73.432 14.0291 76.0754 20.8365C76.6231 22.2467 78.3963 20.9794 77.8531 19.5798C75.164 12.6539 69.0952 8.39265 62.551 8.65838C56.5775 8.90082 50.3749 12.8317 47.7664 19.2283C44.7732 26.5672 47.498 35.4697 52.7306 40.4117C58.0878 45.4712 65.6001 46.4515 71.6579 42.4221C78.4631 37.8952 80.9517 28.1097 77.9631 19.8657C77.4511 18.4523 75.4461 19.1193 75.9655 20.5517" fill="#81191C"/>
<path d="M41.4384 36.2564C40.6461 36.935 39.896 37.675 39.2219 38.5072C38.6256 39.2461 37.9662 40.0814 37.6227 41.0215C36.7764 43.3358 38.632 45.3569 39.8639 46.9132C40.4886 47.7029 41.1297 48.5001 41.8267 49.2063C42.5796 49.9685 43.5294 50.5688 44.5598 50.2491C45.407 49.9865 46.0234 49.2073 46.7323 48.6568C47.4816 48.0745 48.1044 47.469 48.62 46.603C48.9388 46.0662 48.6768 45.2606 48.218 44.9641C47.6876 44.6222 47.1198 44.8911 46.8001 45.4289C46.4979 45.9371 46.0802 46.2642 45.6452 46.6019C45.3832 46.8052 45.1277 47.0127 44.8804 47.2382C44.6541 47.4446 44.4032 47.7633 44.1284 47.885C43.6686 48.0873 43.1887 47.3906 42.8965 47.0646C42.3497 46.4548 41.8203 45.8248 41.3074 45.1769C40.8284 44.5724 40.332 43.9605 39.9152 43.2967C39.5644 42.7387 39.3364 42.2994 39.6661 41.6748C40.3567 40.3673 41.4704 39.2154 42.5256 38.3113C42.9762 37.9249 43.1823 37.2452 42.8709 36.6555C42.597 36.1389 41.8927 35.8678 41.4384 36.2564" fill="#81191C"/>
<path d="M40.5692 39.5786C39.0973 35.4846 35.1598 38.4077 33.1586 40.2434C30.3623 42.8076 26.6795 45.4892 26.6143 50.1051C26.5537 54.4013 29.2476 58.8023 32.653 60.3977C35.7909 61.8682 38.8235 60.258 41.3889 58.094C42.8095 56.8956 44.1394 55.5129 45.1707 53.8593C45.9154 52.664 46.6508 51.0484 46.1846 49.544C45.7349 48.0926 43.7337 48.7659 44.187 50.2311C44.2759 50.5159 44.2841 50.5593 44.1742 50.9828C44.046 51.4793 43.8005 51.9377 43.5477 52.3644C42.88 53.4898 41.9898 54.4701 41.0848 55.3382C39.4893 56.8691 37.1455 58.8182 34.9482 58.6138C32.0073 58.3407 29.6351 55.1043 28.9124 51.9875C28.0478 48.2567 30.3357 45.8397 32.6667 43.7361C33.3124 43.1527 37.9213 38.4574 38.5716 40.2646C39.0799 41.679 41.0848 41.012 40.5692 39.5786Z" fill="#81191C"/>
<path d="M56.9054 16.8685C55.7798 17.2412 54.7603 17.9325 53.8976 18.8419C53.0274 19.7587 52.4037 20.9064 51.9796 22.1662C51.8881 22.4372 51.976 22.8565 52.1006 23.0915C52.2315 23.3382 52.4834 23.5711 52.7325 23.6304C53 23.695 53.2995 23.6727 53.533 23.4906C53.773 23.3043 53.8948 23.0693 53.9992 22.7601C53.8765 23.1243 54.0395 22.6606 54.0734 22.577C54.1183 22.4669 54.1659 22.3578 54.2154 22.2498C54.3253 22.0127 54.4471 21.7819 54.579 21.5606C54.6147 21.5003 54.6532 21.4421 54.6889 21.3807C54.5222 21.6665 54.6449 21.4516 54.6843 21.3944C54.7503 21.2991 54.8181 21.2049 54.8877 21.1128C55.0489 20.9011 55.2192 20.6999 55.3997 20.5104C55.4857 20.4204 55.5792 20.3379 55.6644 20.2457C55.5975 20.3188 55.505 20.3908 55.6314 20.2796C55.6818 20.2352 55.7321 20.1917 55.7843 20.1494C55.973 19.9917 56.1699 19.8466 56.3724 19.7143C56.474 19.6476 56.5766 19.5841 56.681 19.5248C56.7341 19.4941 56.8083 19.4729 56.8532 19.4306C56.7909 19.4888 56.6526 19.5301 56.8102 19.4549C57.0346 19.3469 57.2654 19.2559 57.4998 19.1775C58.0237 19.005 58.3837 18.2914 58.2014 17.6805C58.0155 17.0591 57.4669 16.6833 56.9054 16.8685" fill="white"/>
<path d="M51.888 28.1847C53.2289 28.154 53.1895 25.7466 51.8468 25.7773C50.5068 25.808 50.5462 28.2165 51.888 28.1847Z" fill="white"/>
</svg>
